<svg width="139" height="28" viewBox="0 0 139 28" fill="none" xmlns="http://www.w3.org/2000/svg">
<path d="M126.585 14.4547C125.717 18.2517 124.215 22.0192 122.243 24.6978C122.17 24.8008 122.096 24.9038 122.008 25.0068C121.419 25.7721 120.683 26.3755 119.844 26.8023C119.256 27.0966 118.593 27.3027 117.902 27.4057C117.902 27.4057 117.858 27.4057 117.843 27.4057C115.473 26.3755 111.956 23.6234 115.076 21.6072C115.091 21.5777 115.12 21.563 115.135 21.5336C116.327 20.2385 117.328 18.7373 118.108 17.0743C119.741 13.6158 120.492 9.43614 120.021 4.85912L124.51 1.224C124.922 0.885508 125.496 0.870793 125.908 1.15042C126.04 1.23872 126.158 1.35646 126.246 1.50363C127.821 3.90251 127.806 9.20066 126.585 14.4547Z" fill="#BA7F36"/>
<path d="M135.533 13.6599L135.592 22.6521C135.518 22.7698 135.386 23.0642 135.253 23.3144C135.033 23.697 134.768 24.0355 134.473 24.3445C134.473 24.3445 134.061 24.7713 133.914 24.7566L127.88 23.3879C128.469 22.7698 129.028 21.9309 129.543 20.9155C130.573 18.9139 131.398 16.2796 131.839 13.5128C132.045 12.2177 132.163 10.9078 132.163 9.61274L135.518 13.6599H135.533Z" fill="#BA7F36"/>
<path d="M119.844 26.7875C119.256 27.0818 118.593 27.2879 117.902 27.3909C116.489 27.5969 114.87 27.3762 113.104 26.6403C113.104 26.6403 113.089 26.6403 113.075 26.6403C109.896 25.0509 106.113 21.4894 105.922 13.8512C105.804 8.92097 108.13 5.96283 109.955 4.27037C111.014 3.29904 112.677 4.06433 112.53 5.47717C112.044 9.92173 113.03 16.7652 115.135 21.5335C116.356 24.3003 117.961 26.346 119.859 26.7875H119.844Z" fill="#FFC032"/>
<path d="M133.576 25.3011C132.737 26.14 132.03 26.5668 130.941 27.0966C128.616 28.2004 125.393 28.8038 123.053 25.8015C122.773 25.4483 122.494 25.0804 122.229 24.6977C120.698 22.6079 119.212 20.1649 118.108 17.1331C116.886 13.8071 116.165 9.84819 116.342 5.06513C116.445 2.38663 118.432 0.282083 120.992 0.0318921C122.906 -0.15943 124.951 0.546991 125.893 1.16511C124.054 0.517556 124.951 9.49498 126.57 14.4546C127.35 16.8388 128.366 19.0905 129.543 20.9301C130.823 22.9464 133.576 25.3011 134.473 24.3592C134.473 24.3592 133.576 25.3011 133.576 25.3158V25.3011Z" fill="#FFC032"/>
<path d="M138.462 10.3339C138.55 12.2324 138.506 14.0131 138.123 16.0147C138.123 16.0294 138.123 16.0588 138.123 16.0735C137.579 18.5018 136.843 20.6064 135.871 22.343C135.798 22.4607 135.342 23.2113 135.268 23.329C135.768 22.5196 135.577 20.0324 134.532 17.6777C133.87 16.1765 132.81 14.9109 131.854 13.5275C130.647 11.7614 129.661 9.81877 129.985 7.06667C130.338 4.09382 132.442 3.12249 133.914 3.28438C136.033 3.62288 138.27 6.36025 138.476 10.3486L138.462 10.3339Z" fill="#FFC032"/>
<path d="M20.8721 15.0139C20.151 15.0139 19.6358 14.8078 19.3268 14.4105C19.0177 14.0131 18.8706 13.5127 18.8706 12.8799C18.8706 12.6003 18.9 12.2912 18.9441 11.9674C19.003 11.6436 19.0619 11.2904 19.1502 10.9078L16.7219 10.5252C16.3245 11.6584 15.7505 12.5708 15 13.2478C14.2347 13.9395 13.2339 14.4546 11.9977 14.7637C10.7468 15.0874 9.20143 15.2493 7.31764 15.2493C5.93424 15.2493 4.96294 15.1316 4.40369 14.8961C3.81501 14.6754 3.53539 14.2633 3.53539 13.6599C3.53539 13.2184 3.68252 12.7327 4.0063 12.1882C4.31536 11.6437 4.6833 11.1138 5.12481 10.584C5.81652 10.5399 6.65541 10.4957 7.62674 10.4663C8.61278 10.4663 9.58411 10.4368 10.5702 10.4368C10.9381 10.4368 11.2765 10.4368 11.5856 10.4368C11.9094 10.4368 12.2037 10.4663 12.4834 10.4957C12.9249 9.62741 13.1456 8.8474 13.1456 8.12627C13.1456 7.50815 12.9102 7.08136 12.4392 6.83116C11.983 6.58097 11.1588 6.46324 9.98143 6.46324C9.5252 6.46324 8.95125 6.46324 8.24483 6.49267C7.53841 6.5221 6.81725 6.55154 6.06668 6.59569C5.33083 6.62513 4.6686 6.66928 4.07991 6.71343C3.35878 7.65532 2.68177 8.61193 2.07837 9.56854C1.46025 10.5252 0.959898 11.4818 0.591971 12.3942C0.209327 13.3361 0.0327148 14.2339 0.0327148 15.0727C0.0327148 16.6769 0.650802 17.9278 1.88704 18.855C3.12327 19.7822 4.81575 20.2384 7.0086 20.2384C8.37729 20.2384 9.67241 20.0765 10.9381 19.7528C12.2185 19.429 13.3369 18.9875 14.323 18.4135C15.309 17.8248 16.0743 17.1626 16.5894 16.4267C16.8543 17.5599 17.3694 18.4282 18.12 19.0316C18.8853 19.6497 19.7977 19.9735 20.8426 19.9735H20.8574V14.9256H20.8426L20.8721 15.0139Z" fill="#16161D"/>
<path d="M39.2979 10.2897C39.0036 9.37725 38.6651 8.62668 38.2971 7.99384L35.339 10.8048C35.7216 11.3199 36.0454 11.9086 36.3251 12.5414C36.6047 13.189 36.8401 13.8218 37.0315 14.4399C36.7371 14.7637 36.4575 14.9845 36.222 15.1022C35.9866 15.2199 35.6186 15.2788 35.1477 15.2788C34.3529 15.2788 33.8231 15.1463 33.5288 14.8814C33.2344 14.6165 33.0873 14.1456 33.0873 13.4833C33.0873 13.2331 33.102 12.9094 33.1167 12.5414C33.1461 12.1735 33.1903 11.835 33.2197 11.5407H30.3205C30.188 12.5267 30.0408 13.292 29.8937 13.8512C29.7318 14.3958 29.511 14.7784 29.2461 14.9992C28.9665 15.2199 28.5839 15.3377 28.0688 15.3377C27.3918 15.3377 26.9503 15.1905 26.7295 14.9256C26.5235 14.6607 26.4204 14.2045 26.4204 13.5569C26.4204 12.9829 26.5087 12.1882 26.6853 11.1875L23.7861 10.7754C23.5948 11.835 23.4034 12.6739 23.2268 13.292C23.0355 13.9101 22.7559 14.3516 22.4174 14.6165C22.0642 14.8814 21.5491 15.0139 20.8721 15.0139H20.8574C20.6808 15.0139 20.563 15.0728 20.4747 15.2052C20.3864 15.3377 20.3423 15.5879 20.3423 15.9558V19.1052C20.3423 19.4732 20.3864 19.7234 20.4747 19.8558C20.563 19.9883 20.6808 20.0618 20.8574 20.0618H20.8721C21.3725 20.0618 21.8876 19.9588 22.4027 19.7822C22.9178 19.6056 23.374 19.326 23.7861 18.9434C24.1982 18.5754 24.4925 18.0898 24.6691 17.5158C24.8604 18.3988 25.2872 19.0905 25.9348 19.5762C26.5823 20.0766 27.3476 20.312 28.2159 20.312C29.0842 20.312 29.7907 20.0766 30.4676 19.6203C31.1593 19.1494 31.6156 18.4724 31.8658 17.5747C32.0424 18.443 32.4103 19.12 32.999 19.5909C33.5877 20.0618 34.353 20.2973 35.3096 20.2973C35.9277 20.2973 36.4428 20.209 36.8843 20.0177C37.3258 19.8264 37.782 19.5468 38.253 19.1788C38.7239 18.2517 39.0918 17.295 39.3715 16.3237C39.6364 15.3377 39.7689 14.4399 39.7689 13.6452C39.7689 12.306 39.6217 11.1874 39.342 10.3044L39.2979 10.2897Z" fill="#16161D"/>
<path d="M47.0979 15.0139C46.6858 15.0139 46.3326 14.9697 46.053 14.8814C45.7587 14.7931 45.5085 14.6754 45.273 14.4988V1.29758L44.3753 0.914932L40.8137 4.29986C40.902 4.91798 40.9609 5.55081 41.0197 6.2278C41.1228 7.58177 41.1669 8.93574 41.1669 10.3191V14.6607C41.1669 15.2935 41.2405 15.9411 41.373 16.5739C41.4907 17.2215 41.7556 17.7954 42.153 18.3252C42.5503 18.8551 43.1537 19.2818 43.9337 19.5909C44.7285 19.9147 45.7881 20.0766 47.0979 20.0766H47.1126V15.0286H47.0979V15.0139Z" fill="#16161D"/>
<path d="M61.8151 10.069C61.403 9.43614 60.7996 8.87689 60.0049 8.42066C59.2102 7.96443 58.2388 7.49348 57.0909 7.00782C56.3992 6.71348 55.6486 6.3897 54.8392 6.02178C54.0298 5.66857 53.1614 5.25649 52.2196 4.77082C51.469 5.41837 50.792 6.22782 50.2033 7.19914C49.6146 8.17047 49.1437 9.2301 48.8052 10.378C48.452 11.526 48.2901 12.718 48.2901 13.9248C48.2901 14.3222 48.3784 14.6754 48.555 14.9698C48.0988 14.9698 47.6131 14.9992 47.0833 14.9992H47.0686C46.892 14.9992 46.7742 15.0581 46.6859 15.1905C46.5976 15.323 46.5535 15.5732 46.5535 15.9411V19.0905C46.5535 19.4585 46.5976 19.7087 46.6859 19.8411C46.7742 19.9736 46.892 20.0472 47.0686 20.0472H47.0833C48.6139 20.0472 50.0708 19.7234 51.5131 19.0758C52.6758 19.6645 54.0151 20.0472 55.5456 20.209C57.0909 20.3856 58.592 20.3562 60.1079 20.1207L61.9917 14.7637C62.1241 14.3958 62.2272 14.0132 62.3008 13.6305C62.3596 13.2479 62.4038 12.8947 62.4038 12.5709C62.4038 11.526 62.1977 10.6871 61.7857 10.0395L61.8151 10.069ZM53.0143 14.1309C52.3373 13.8954 51.8075 13.6158 51.4395 13.2626C51.0716 12.9094 50.8803 12.4679 50.8803 11.9233C50.8803 11.3788 51.0569 10.8931 51.3954 10.4663C51.7486 10.0395 52.2196 9.8335 52.823 9.8335C53.3233 9.8335 53.809 10.0248 54.2358 10.3928C54.6773 10.7754 54.8981 11.2611 54.8981 11.8792C54.8981 12.7475 54.28 13.4981 53.0143 14.1309ZM58.0475 14.8373C57.503 14.8079 56.8996 14.749 56.2373 14.6754C56.5464 14.2045 56.7524 13.7188 56.8849 13.2331C57.0173 12.7328 57.0762 12.2324 57.0762 11.732C57.0762 11.6143 57.0762 11.4818 57.0615 11.3641C57.0615 11.2463 57.0321 11.1286 57.0173 11.0109C58.0622 11.4524 58.8128 11.9528 59.2837 12.512C59.7547 13.086 59.946 13.8807 59.8871 14.9109C59.2249 14.9109 58.6068 14.8815 58.0475 14.8373Z" fill="#16161D"/>
<path d="M97.4452 6.08062C97.2538 4.44703 96.9889 2.84286 96.6357 1.28285L95.738 1.01794L92.2647 4.31457C92.5738 5.65383 92.824 7.0961 93.0153 8.62668C93.2655 10.584 93.3832 12.6003 93.3832 14.7048C93.0595 14.8079 92.721 14.8814 92.3383 14.9403C91.9704 14.9845 91.5877 15.0139 91.2051 15.0139C91.0285 15.0139 90.896 15.0728 90.8077 15.2052C90.7194 15.3377 90.6753 15.5879 90.6753 15.9558V19.1052C90.6753 19.4732 90.7194 19.7234 90.8077 19.8558C90.896 19.9883 91.0285 20.0618 91.2051 20.0618C92.7945 20.0618 94.0602 19.8264 95.0168 19.3701C95.9881 18.9139 96.8123 18.2958 97.4893 17.5158C97.5776 16.5592 97.6365 15.6026 97.6953 14.6165C97.7395 13.6305 97.7689 12.7327 97.7689 11.938C97.7689 9.98065 97.6659 8.03799 97.4452 6.0659V6.08062Z" fill="#16161D"/>
<path d="M81.7714 15.4996C81.3593 15.426 81.0356 15.2788 80.7854 15.058C80.5352 14.8226 80.4174 14.5724 80.4174 14.278C80.4174 13.8365 80.5352 13.4245 80.7706 13.0418C81.0208 12.6444 81.3299 12.3354 81.7272 12.0999C82.1099 11.8497 82.5072 11.732 82.9193 11.732L84.1703 7.33158C83.2725 7.33158 82.419 7.53762 81.6243 7.93498C80.8148 8.34706 80.1084 8.89159 79.4903 9.61273C78.8721 10.3191 78.4012 11.1433 78.0627 12.0705C77.7242 12.9977 77.5917 13.9837 77.6359 15.0139H76.3997C76.2378 15.0139 76.1054 15.0728 76.0171 15.2052C75.914 15.3377 75.8699 15.5879 75.8699 15.9558V19.1052C75.8699 19.4732 75.914 19.7234 76.0171 19.8558C76.1054 19.9883 76.2378 20.0619 76.3997 20.0619C77.8567 20.0619 79.3431 20.1354 80.8884 20.2679C82.419 20.4151 83.876 20.6358 85.2594 20.9007L86.0394 16.2648L81.7714 15.4996Z" fill="#16161D"/>
<path d="M82.9195 11.7467C85.5685 11.7467 85.7746 20.0619 91.2052 20.0619V15.0139C86.6282 15.0139 87.1727 7.33158 84.1557 7.33158L82.9048 11.7467H82.9195Z" fill="#16161D"/>
<path d="M80.9179 23.0788C81.227 23.0936 81.9187 23.1083 82.9783 23.1083C84.0379 23.1083 85.6715 23.0053 87.8496 22.7992C88.3942 23.2554 88.7032 23.5204 88.7916 23.5939C88.3353 24.683 87.8938 25.7426 87.467 26.7728C85.1712 26.9642 83.3904 27.0672 82.1394 27.0672C80.8884 27.0672 80.2556 26.5374 80.2556 25.463C80.2556 24.7272 80.4764 23.9472 80.9179 23.0936V23.0788Z" fill="#16161D"/>
<path d="M75.1194 15.0139C74.8986 13.6747 74.5159 12.4679 74.0008 11.4082C73.4857 10.3339 72.8676 9.49501 72.1171 8.86217C71.3812 8.22934 70.5571 7.90556 69.6446 7.90556C68.8646 7.90556 68.1729 8.15575 67.5695 8.67085C66.9514 9.17123 66.451 9.84822 66.0242 10.6724C65.6121 11.4965 65.3031 12.409 65.0823 13.3656C64.8615 14.3516 64.7585 15.3083 64.7585 16.2207C64.7585 17.5894 65.1265 18.6049 65.8476 19.2819C66.5687 19.9589 67.5842 20.2973 68.9087 20.2973C69.6152 20.2973 70.2627 20.2385 70.8661 20.1207C71.4695 20.003 71.9994 19.8558 72.4703 19.6498C72.4703 20.0324 72.4997 20.3709 72.4997 20.6947C71.5873 21.3864 70.5424 21.9015 69.3797 22.24C68.2023 22.5785 66.7748 22.7698 65.097 22.814L63.9197 25.5072C64.5672 25.934 65.1412 26.2578 65.6563 26.4785C66.1714 26.6993 66.657 26.8612 67.1427 26.9495C67.6136 27.0231 68.114 27.0672 68.6586 27.0672C70.0126 27.0672 71.1458 26.7581 72.0582 26.1547C72.9854 25.5513 73.7065 24.7125 74.2363 23.6528C74.7661 22.5932 75.1046 21.3864 75.2518 20.0619H76.3997V15.0139H75.1194ZM70.6601 15.7351C70.248 15.7792 69.8506 15.8086 69.468 15.8086C68.9088 15.8086 68.4525 15.7203 68.114 15.5732C67.7755 15.426 67.5989 15.1022 67.5989 14.6166C67.5989 14.2486 67.6725 13.8807 67.7902 13.4981C67.9227 13.1007 68.114 12.7769 68.3348 12.512C68.5703 12.2471 68.8352 12.1146 69.1295 12.1146C69.6887 12.1146 70.2039 12.4384 70.6748 13.0713C71.131 13.7188 71.4989 14.543 71.7933 15.5732C71.4401 15.6467 71.0574 15.6909 70.6601 15.7351Z" fill="#16161D"/>
</svg>
